# xmcd
#
# Track frame offsets:
#       150
#       16712
#       30545
#       47741
#       65778
#       79643
#       87622
#
# Disc length: 1423 seconds
#
# Revision: 0
# Processed by: cddbd v1.5.2PL0 Copyright (c) Steve Scherf et al.
# Submitted via: WaveLab 6.10
#
DISCID=50058d07
DTITLE=GUN-FOAD - BRAND NEW WORLD
DYEAR=2009
DGENRE=
TTITLE0=New Beginning
TTITLE1=Good Morning My Girl
TTITLE2=Empty Room
TTITLE3=LIFE
TTITLE4=Olive
TTITLE5=Outroduction
TTITLE6=BONUS TRACK-
EXTD=
EXTT0=
EXTT1=
EXTT2=
EXTT3=
EXTT4=
EXTT5=
EXTT6=
PLAYORDER=
